<svg width="369" height="368" viewBox="0 0 369 368" fill="none" xmlns="http://www.w3.org/2000/svg">
<path opacity="0.4" d="M190.911 0.0136719V141.337C190.911 160.092 206.139 175.31 224.94 175.31H368.421C364.085 79.8123 286.829 3.34896 190.927 0.0136719H190.911Z" fill="url(#paint0_linear_2278_6961)"/>
<path opacity="0.4" d="M190.911 226.192V367.515C286.813 364.18 364.085 287.717 368.405 192.219H224.924C206.139 192.219 190.896 207.421 190.896 226.192H190.911Z" fill="url(#paint1_linear_2278_6961)"/>
<path opacity="0.4" d="M177.89 141.337V0.0136719C81.988 3.34896 4.71613 79.8123 0.396484 175.31H143.877C162.663 175.31 177.906 160.107 177.906 141.337H177.89Z" fill="url(#paint2_linear_2278_6961)"/>
<path opacity="0.4" d="M143.877 192.219H0.396484C4.73167 287.717 81.988 364.18 177.89 367.515V226.192C177.89 207.437 162.663 192.219 143.862 192.219H143.877Z" fill="url(#paint3_linear_2278_6961)"/>
<path d="M190.601 8.62305V143.322C190.601 161.209 205.113 175.698 223.029 175.698H359.781C355.648 84.6831 282.012 11.8032 190.601 8.62305Z" fill="url(#paint4_linear_2278_6961)"/>
<path d="M190.601 224.208V358.907C282.012 355.726 355.648 282.847 359.781 191.832H223.029C205.113 191.832 190.601 206.321 190.601 224.208Z" fill="url(#paint5_linear_2278_6961)"/>
<path d="M178.201 143.322V8.62305C86.7896 11.8032 13.1537 84.6831 9.02051 175.698H145.773C163.689 175.698 178.201 161.209 178.201 143.322Z" fill="url(#paint6_linear_2278_6961)"/>
<path d="M145.773 191.832H9.02051C13.1537 282.847 86.7896 355.726 178.201 358.907V224.208C178.201 206.321 163.689 191.832 145.773 191.832Z" fill="url(#paint7_linear_2278_6961)"/>
<path d="M184.728 292.553C244.636 292.553 293.122 243.988 293.024 184.08C292.926 124.172 244.282 75.6074 184.374 75.6074C124.466 75.6074 75.9806 124.172 76.0783 184.08C76.1761 243.988 124.82 292.553 184.728 292.553Z" fill="white"/>
<path d="M184.717 285.292C240.614 285.292 285.854 239.978 285.763 184.081C285.672 128.183 240.284 82.8691 184.386 82.8691C128.489 82.8691 83.2487 128.183 83.3399 184.081C83.4311 239.978 128.819 285.292 184.717 285.292Z" fill="#181A6A"/>
<path d="M120.861 174.12C120.221 174.12 119.625 174.016 119.073 173.808C118.529 173.592 118.053 173.292 117.645 172.908C117.245 172.516 116.933 172.056 116.709 171.528C116.485 171 116.373 170.424 116.373 169.8C116.373 169.176 116.485 168.6 116.709 168.072C116.933 167.544 117.249 167.088 117.657 166.704C118.065 166.312 118.541 166.012 119.085 165.804C119.629 165.588 120.225 165.48 120.873 165.48C121.561 165.48 122.189 165.6 122.757 165.84C123.325 166.072 123.805 166.42 124.197 166.884L123.189 167.832C122.885 167.504 122.545 167.26 122.169 167.1C121.793 166.932 121.385 166.848 120.945 166.848C120.505 166.848 120.101 166.92 119.733 167.064C119.373 167.208 119.057 167.412 118.785 167.676C118.521 167.94 118.313 168.252 118.161 168.612C118.017 168.972 117.945 169.368 117.945 169.8C117.945 170.232 118.017 170.628 118.161 170.988C118.313 171.348 118.521 171.66 118.785 171.924C119.057 172.188 119.373 172.392 119.733 172.536C120.101 172.68 120.505 172.752 120.945 172.752C121.385 172.752 121.793 172.672 122.169 172.512C122.545 172.344 122.885 172.092 123.189 171.756L124.197 172.716C123.805 173.172 123.325 173.52 122.757 173.76C122.189 174 121.557 174.12 120.861 174.12ZM134.612 174.12C133.956 174.12 133.352 174.012 132.8 173.796C132.248 173.58 131.768 173.28 131.36 172.896C130.952 172.504 130.636 172.048 130.412 171.528C130.188 171 130.076 170.424 130.076 169.8C130.076 169.176 130.188 168.604 130.412 168.084C130.636 167.556 130.952 167.1 131.36 166.716C131.768 166.324 132.248 166.02 132.8 165.804C133.352 165.588 133.952 165.48 134.6 165.48C135.256 165.48 135.856 165.588 136.4 165.804C136.952 166.02 137.432 166.324 137.84 166.716C138.248 167.1 138.564 167.556 138.788 168.084C139.012 168.604 139.124 169.176 139.124 169.8C139.124 170.424 139.012 171 138.788 171.528C138.564 172.056 138.248 172.512 137.84 172.896C137.432 173.28 136.952 173.58 136.4 173.796C135.856 174.012 135.26 174.12 134.612 174.12ZM134.6 172.752C135.024 172.752 135.416 172.68 135.776 172.536C136.136 172.392 136.448 172.188 136.712 171.924C136.976 171.652 137.18 171.34 137.324 170.988C137.476 170.628 137.552 170.232 137.552 169.8C137.552 169.368 137.476 168.976 137.324 168.624C137.18 168.264 136.976 167.952 136.712 167.688C136.448 167.416 136.136 167.208 135.776 167.064C135.416 166.92 135.024 166.848 134.6 166.848C134.176 166.848 133.784 166.92 133.424 167.064C133.072 167.208 132.76 167.416 132.488 167.688C132.224 167.952 132.016 168.264 131.864 168.624C131.72 168.976 131.648 169.368 131.648 169.8C131.648 170.224 131.72 170.616 131.864 170.976C132.016 171.336 132.224 171.652 132.488 171.924C132.752 172.188 133.064 172.392 133.424 172.536C133.784 172.68 134.176 172.752 134.6 172.752ZM145.937 174V165.6H147.221L152.489 172.068H151.853V165.6H153.401V174H152.117L146.849 167.532H147.485V174H145.937ZM162.516 174V166.92H159.732V165.6H166.86V166.92H164.076V174H162.516ZM173.191 174V165.6H174.751V174H173.191ZM182.183 174V165.6H183.467L188.735 172.068H188.099V165.6H189.647V174H188.363L183.095 167.532H183.731V174H182.183ZM200.67 174.12C199.518 174.12 198.614 173.796 197.958 173.148C197.31 172.5 196.986 171.564 196.986 170.34V165.6H198.546V170.28C198.546 171.144 198.73 171.772 199.098 172.164C199.474 172.556 200.002 172.752 200.682 172.752C201.362 172.752 201.886 172.556 202.254 172.164C202.622 171.772 202.806 171.144 202.806 170.28V165.6H204.342V170.34C204.342 171.564 204.014 172.5 203.358 173.148C202.71 173.796 201.814 174.12 200.67 174.12ZM215.622 174.12C214.966 174.12 214.362 174.012 213.81 173.796C213.258 173.58 212.778 173.28 212.37 172.896C211.962 172.504 211.646 172.048 211.422 171.528C211.198 171 211.086 170.424 211.086 169.8C211.086 169.176 211.198 168.604 211.422 168.084C211.646 167.556 211.962 167.1 212.37 166.716C212.778 166.324 213.258 166.02 213.81 165.804C214.362 165.588 214.962 165.48 215.61 165.48C216.266 165.48 216.866 165.588 217.41 165.804C217.962 166.02 218.442 166.324 218.85 166.716C219.258 167.1 219.574 167.556 219.798 168.084C220.022 168.604 220.134 169.176 220.134 169.8C220.134 170.424 220.022 171 219.798 171.528C219.574 172.056 219.258 172.512 218.85 172.896C218.442 173.28 217.962 173.58 217.41 173.796C216.866 174.012 216.27 174.12 215.622 174.12ZM215.61 172.752C216.034 172.752 216.426 172.68 216.786 172.536C217.146 172.392 217.458 172.188 217.722 171.924C217.986 171.652 218.19 171.34 218.334 170.988C218.486 170.628 218.562 170.232 218.562 169.8C218.562 169.368 218.486 168.976 218.334 168.624C218.19 168.264 217.986 167.952 217.722 167.688C217.458 167.416 217.146 167.208 216.786 167.064C216.426 166.92 216.034 166.848 215.61 166.848C215.186 166.848 214.794 166.92 214.434 167.064C214.082 167.208 213.77 167.416 213.498 167.688C213.234 167.952 213.026 168.264 212.874 168.624C212.73 168.976 212.658 169.368 212.658 169.8C212.658 170.224 212.73 170.616 212.874 170.976C213.026 171.336 213.234 171.652 213.498 171.924C213.762 172.188 214.074 172.392 214.434 172.536C214.794 172.68 215.186 172.752 215.61 172.752ZM230.56 174.12C229.408 174.12 228.504 173.796 227.848 173.148C227.2 172.5 226.876 171.564 226.876 170.34V165.6H228.436V170.28C228.436 171.144 228.62 171.772 228.988 172.164C229.364 172.556 229.892 172.752 230.572 172.752C231.252 172.752 231.776 172.556 232.144 172.164C232.512 171.772 232.696 171.144 232.696 170.28V165.6H234.232V170.34C234.232 171.564 233.904 172.5 233.248 173.148C232.6 173.796 231.704 174.12 230.56 174.12ZM244.181 174.12C243.525 174.12 242.897 174.028 242.297 173.844C241.697 173.652 241.221 173.408 240.869 173.112L241.409 171.9C241.745 172.164 242.161 172.384 242.657 172.56C243.153 172.736 243.661 172.824 244.181 172.824C244.621 172.824 244.977 172.776 245.249 172.68C245.521 172.584 245.721 172.456 245.849 172.296C245.977 172.128 246.041 171.94 246.041 171.732C246.041 171.476 245.949 171.272 245.765 171.12C245.581 170.96 245.341 170.836 245.045 170.748C244.757 170.652 244.433 170.564 244.073 170.484C243.721 170.404 243.365 170.312 243.005 170.208C242.653 170.096 242.329 169.956 242.033 169.788C241.745 169.612 241.509 169.38 241.325 169.092C241.141 168.804 241.049 168.436 241.049 167.988C241.049 167.532 241.169 167.116 241.409 166.74C241.657 166.356 242.029 166.052 242.525 165.828C243.029 165.596 243.665 165.48 244.433 165.48C244.937 165.48 245.437 165.544 245.933 165.672C246.429 165.8 246.861 165.984 247.229 166.224L246.737 167.436C246.361 167.212 245.973 167.048 245.573 166.944C245.173 166.832 244.789 166.776 244.421 166.776C243.989 166.776 243.637 166.828 243.365 166.932C243.101 167.036 242.905 167.172 242.777 167.34C242.657 167.508 242.597 167.7 242.597 167.916C242.597 168.172 242.685 168.38 242.861 168.54C243.045 168.692 243.281 168.812 243.569 168.9C243.865 168.988 244.193 169.076 244.553 169.164C244.913 169.244 245.269 169.336 245.621 169.44C245.981 169.544 246.305 169.68 246.593 169.848C246.889 170.016 247.125 170.244 247.301 170.532C247.485 170.82 247.577 171.184 247.577 171.624C247.577 172.072 247.453 172.488 247.205 172.872C246.965 173.248 246.593 173.552 246.089 173.784C245.585 174.008 244.949 174.12 244.181 174.12ZM105.761 188L109.541 179.6H111.077L114.869 188H113.237L109.985 180.428H110.609L107.369 188H105.761ZM107.501 186.056L107.921 184.832H112.457L112.877 186.056H107.501ZM123.702 188.12C123.046 188.12 122.418 188.028 121.818 187.844C121.218 187.652 120.742 187.408 120.39 187.112L120.93 185.9C121.266 186.164 121.682 186.384 122.178 186.56C122.674 186.736 123.182 186.824 123.702 186.824C124.142 186.824 124.498 186.776 124.77 186.68C125.042 186.584 125.242 186.456 125.37 186.296C125.498 186.128 125.562 185.94 125.562 185.732C125.562 185.476 125.47 185.272 125.286 185.12C125.102 184.96 124.862 184.836 124.566 184.748C124.278 184.652 123.954 184.564 123.594 184.484C123.242 184.404 122.886 184.312 122.526 184.208C122.174 184.096 121.85 183.956 121.554 183.788C121.266 183.612 121.03 183.38 120.846 183.092C120.662 182.804 120.57 182.436 120.57 181.988C120.57 181.532 120.69 181.116 120.93 180.74C121.178 180.356 121.55 180.052 122.046 179.828C122.55 179.596 123.186 179.48 123.954 179.48C124.458 179.48 124.958 179.544 125.454 179.672C125.95 179.8 126.382 179.984 126.75 180.224L126.258 181.436C125.882 181.212 125.494 181.048 125.094 180.944C124.694 180.832 124.31 180.776 123.942 180.776C123.51 180.776 123.158 180.828 122.886 180.932C122.622 181.036 122.426 181.172 122.298 181.34C122.178 181.508 122.118 181.7 122.118 181.916C122.118 182.172 122.206 182.38 122.382 182.54C122.566 182.692 122.802 182.812 123.09 182.9C123.386 182.988 123.714 183.076 124.074 183.164C124.434 183.244 124.79 183.336 125.142 183.44C125.502 183.544 125.826 183.68 126.114 183.848C126.41 184.016 126.646 184.244 126.822 184.532C127.006 184.82 127.098 185.184 127.098 185.624C127.098 186.072 126.974 186.488 126.726 186.872C126.486 187.248 126.114 187.552 125.61 187.784C125.106 188.008 124.47 188.12 123.702 188.12ZM136.408 188.12C135.752 188.12 135.124 188.028 134.524 187.844C133.924 187.652 133.448 187.408 133.096 187.112L133.636 185.9C133.972 186.164 134.388 186.384 134.884 186.56C135.38 186.736 135.888 186.824 136.408 186.824C136.848 186.824 137.204 186.776 137.476 186.68C137.748 186.584 137.948 186.456 138.076 186.296C138.204 186.128 138.268 185.94 138.268 185.732C138.268 185.476 138.176 185.272 137.992 185.12C137.808 184.96 137.568 184.836 137.272 184.748C136.984 184.652 136.66 184.564 136.3 184.484C135.948 184.404 135.592 184.312 135.232 184.208C134.88 184.096 134.556 183.956 134.26 183.788C133.972 183.612 133.736 183.38 133.552 183.092C133.368 182.804 133.276 182.436 133.276 181.988C133.276 181.532 133.396 181.116 133.636 180.74C133.884 180.356 134.256 180.052 134.752 179.828C135.256 179.596 135.892 179.48 136.66 179.48C137.164 179.48 137.664 179.544 138.16 179.672C138.656 179.8 139.088 179.984 139.456 180.224L138.964 181.436C138.588 181.212 138.2 181.048 137.8 180.944C137.4 180.832 137.016 180.776 136.648 180.776C136.216 180.776 135.864 180.828 135.592 180.932C135.328 181.036 135.132 181.172 135.004 181.34C134.884 181.508 134.824 181.7 134.824 181.916C134.824 182.172 134.912 182.38 135.088 182.54C135.272 182.692 135.508 182.812 135.796 182.9C136.092 182.988 136.42 183.076 136.78 183.164C137.14 183.244 137.496 183.336 137.848 183.44C138.208 183.544 138.532 183.68 138.82 183.848C139.116 184.016 139.352 184.244 139.528 184.532C139.712 184.82 139.804 185.184 139.804 185.624C139.804 186.072 139.68 186.488 139.432 186.872C139.192 187.248 138.82 187.552 138.316 187.784C137.812 188.008 137.176 188.12 136.408 188.12ZM147.951 183.092H152.127V184.376H147.951V183.092ZM148.071 186.692H152.811V188H146.511V179.6H152.643V180.908H148.071V186.692ZM162.314 188.12C161.658 188.12 161.03 188.028 160.43 187.844C159.83 187.652 159.354 187.408 159.002 187.112L159.542 185.9C159.878 186.164 160.294 186.384 160.79 186.56C161.286 186.736 161.794 186.824 162.314 186.824C162.754 186.824 163.11 186.776 163.382 186.68C163.654 186.584 163.854 186.456 163.982 186.296C164.11 186.128 164.174 185.94 164.174 185.732C164.174 185.476 164.082 185.272 163.898 185.12C163.714 184.96 163.474 184.836 163.178 184.748C162.89 184.652 162.566 184.564 162.206 184.484C161.854 184.404 161.498 184.312 161.138 184.208C160.786 184.096 160.462 183.956 160.166 183.788C159.878 183.612 159.642 183.38 159.458 183.092C159.274 182.804 159.182 182.436 159.182 181.988C159.182 181.532 159.302 181.116 159.542 180.74C159.79 180.356 160.162 180.052 160.658 179.828C161.162 179.596 161.798 179.48 162.566 179.48C163.07 179.48 163.57 179.544 164.066 179.672C164.562 179.8 164.994 179.984 165.362 180.224L164.87 181.436C164.494 181.212 164.106 181.048 163.706 180.944C163.306 180.832 162.922 180.776 162.554 180.776C162.122 180.776 161.77 180.828 161.498 180.932C161.234 181.036 161.038 181.172 160.91 181.34C160.79 181.508 160.73 181.7 160.73 181.916C160.73 182.172 160.818 182.38 160.994 182.54C161.178 182.692 161.414 182.812 161.702 182.9C161.998 182.988 162.326 183.076 162.686 183.164C163.046 183.244 163.402 183.336 163.754 183.44C164.114 183.544 164.438 183.68 164.726 183.848C165.022 184.016 165.258 184.244 165.434 184.532C165.618 184.82 165.71 185.184 165.71 185.624C165.71 186.072 165.586 186.488 165.338 186.872C165.098 187.248 164.726 187.552 164.222 187.784C163.718 188.008 163.082 188.12 162.314 188.12ZM175.021 188.12C174.365 188.12 173.737 188.028 173.137 187.844C172.537 187.652 172.061 187.408 171.709 187.112L172.249 185.9C172.585 186.164 173.001 186.384 173.497 186.56C173.993 186.736 174.501 186.824 175.021 186.824C175.461 186.824 175.817 186.776 176.089 186.68C176.361 186.584 176.561 186.456 176.689 186.296C176.817 186.128 176.881 185.94 176.881 185.732C176.881 185.476 176.789 185.272 176.605 185.12C176.421 184.96 176.181 184.836 175.885 184.748C175.597 184.652 175.273 184.564 174.913 184.484C174.561 184.404 174.205 184.312 173.845 184.208C173.493 184.096 173.169 183.956 172.873 183.788C172.585 183.612 172.349 183.38 172.165 183.092C171.981 182.804 171.889 182.436 171.889 181.988C171.889 181.532 172.009 181.116 172.249 180.74C172.497 180.356 172.869 180.052 173.365 179.828C173.869 179.596 174.505 179.48 175.273 179.48C175.777 179.48 176.277 179.544 176.773 179.672C177.269 179.8 177.701 179.984 178.069 180.224L177.577 181.436C177.201 181.212 176.813 181.048 176.413 180.944C176.013 180.832 175.629 180.776 175.261 180.776C174.829 180.776 174.477 180.828 174.205 180.932C173.941 181.036 173.745 181.172 173.617 181.34C173.497 181.508 173.437 181.7 173.437 181.916C173.437 182.172 173.525 182.38 173.701 182.54C173.885 182.692 174.121 182.812 174.409 182.9C174.705 182.988 175.033 183.076 175.393 183.164C175.753 183.244 176.109 183.336 176.461 183.44C176.821 183.544 177.145 183.68 177.433 183.848C177.729 184.016 177.965 184.244 178.141 184.532C178.325 184.82 178.417 185.184 178.417 185.624C178.417 186.072 178.293 186.488 178.045 186.872C177.805 187.248 177.433 187.552 176.929 187.784C176.425 188.008 175.789 188.12 175.021 188.12ZM185.124 188V179.6H186.408L190.08 185.732H189.408L193.02 179.6H194.304L194.316 188H192.84L192.828 181.916H193.14L190.068 187.04H189.372L186.252 181.916H186.612V188H185.124ZM203.185 183.092H207.361V184.376H203.185V183.092ZM203.305 186.692H208.045V188H201.745V179.6H207.877V180.908H203.305V186.692ZM214.944 188V179.6H216.228L221.496 186.068H220.86V179.6H222.408V188H221.124L215.856 181.532H216.492V188H214.944ZM231.523 188V180.92H228.739V179.6H235.867V180.92H233.083V188H231.523ZM253.098 188.12C252.514 188.12 251.99 188.024 251.526 187.832C251.062 187.64 250.698 187.376 250.434 187.04C250.17 186.704 250.038 186.316 250.038 185.876C250.038 185.476 250.126 185.116 250.302 184.796C250.478 184.476 250.758 184.172 251.142 183.884C251.526 183.588 252.018 183.292 252.618 182.996C253.09 182.764 253.458 182.56 253.722 182.384C253.994 182.208 254.182 182.04 254.286 181.88C254.398 181.72 254.454 181.552 254.454 181.376C254.454 181.136 254.37 180.944 254.202 180.8C254.034 180.648 253.794 180.572 253.482 180.572C253.146 180.572 252.882 180.656 252.69 180.824C252.506 180.984 252.414 181.196 252.414 181.46C252.414 181.596 252.438 181.728 252.486 181.856C252.542 181.984 252.638 182.128 252.774 182.288C252.91 182.448 253.106 182.652 253.362 182.9L257.802 187.16L256.974 188.132L252.174 183.524C251.902 183.26 251.682 183.016 251.514 182.792C251.346 182.568 251.226 182.352 251.154 182.144C251.082 181.928 251.046 181.708 251.046 181.484C251.046 181.092 251.146 180.748 251.346 180.452C251.546 180.148 251.83 179.916 252.198 179.756C252.566 179.588 252.994 179.504 253.482 179.504C253.938 179.504 254.33 179.58 254.658 179.732C254.994 179.876 255.254 180.088 255.438 180.368C255.63 180.64 255.726 180.968 255.726 181.352C255.726 181.688 255.642 182 255.474 182.288C255.306 182.568 255.042 182.836 254.682 183.092C254.33 183.348 253.858 183.616 253.266 183.896C252.826 184.112 252.478 184.316 252.222 184.508C251.966 184.7 251.782 184.892 251.67 185.084C251.558 185.276 251.502 185.488 251.502 185.72C251.502 185.952 251.57 186.156 251.706 186.332C251.85 186.508 252.05 186.648 252.306 186.752C252.562 186.848 252.862 186.896 253.206 186.896C253.718 186.896 254.182 186.784 254.598 186.56C255.022 186.328 255.378 185.984 255.666 185.528C255.954 185.072 256.162 184.508 256.29 183.836L257.502 184.232C257.334 185.04 257.042 185.736 256.626 186.32C256.218 186.896 255.714 187.34 255.114 187.652C254.514 187.964 253.842 188.12 253.098 188.12ZM109.477 202V193.6H111.037V202H109.477ZM118.469 202V193.6H119.753L123.425 199.732H122.753L126.365 193.6H127.649L127.661 202H126.185L126.173 195.916H126.485L123.413 201.04H122.717L119.597 195.916H119.957V202H118.469ZM135.089 202V193.6H138.545C139.289 193.6 139.925 193.72 140.453 193.96C140.989 194.2 141.401 194.544 141.689 194.992C141.977 195.44 142.121 195.972 142.121 196.588C142.121 197.204 141.977 197.736 141.689 198.184C141.401 198.632 140.989 198.976 140.453 199.216C139.925 199.456 139.289 199.576 138.545 199.576H135.953L136.649 198.844V202H135.089ZM136.649 199.012L135.953 198.256H138.473C139.161 198.256 139.677 198.112 140.021 197.824C140.373 197.528 140.549 197.116 140.549 196.588C140.549 196.052 140.373 195.64 140.021 195.352C139.677 195.064 139.161 194.92 138.473 194.92H135.953L136.649 194.152V199.012ZM148.839 202V193.6H152.295C153.039 193.6 153.675 193.72 154.203 193.96C154.739 194.2 155.151 194.544 155.439 194.992C155.727 195.44 155.871 195.972 155.871 196.588C155.871 197.204 155.727 197.736 155.439 198.184C155.151 198.624 154.739 198.964 154.203 199.204C153.675 199.436 153.039 199.552 152.295 199.552H149.703L150.399 198.844V202H148.839ZM154.335 202L152.211 198.952H153.879L156.015 202H154.335ZM150.399 199.012L149.703 198.268H152.223C152.911 198.268 153.427 198.12 153.771 197.824C154.123 197.528 154.299 197.116 154.299 196.588C154.299 196.052 154.123 195.64 153.771 195.352C153.427 195.064 152.911 194.92 152.223 194.92H149.703L150.399 194.152V199.012ZM166.713 202.12C166.057 202.12 165.453 202.012 164.901 201.796C164.349 201.58 163.869 201.28 163.461 200.896C163.053 200.504 162.737 200.048 162.513 199.528C162.289 199 162.177 198.424 162.177 197.8C162.177 197.176 162.289 196.604 162.513 196.084C162.737 195.556 163.053 195.1 163.461 194.716C163.869 194.324 164.349 194.02 164.901 193.804C165.453 193.588 166.053 193.48 166.701 193.48C167.357 193.48 167.957 193.588 168.501 193.804C169.053 194.02 169.533 194.324 169.941 194.716C170.349 195.1 170.665 195.556 170.889 196.084C171.113 196.604 171.225 197.176 171.225 197.8C171.225 198.424 171.113 199 170.889 199.528C170.665 200.056 170.349 200.512 169.941 200.896C169.533 201.28 169.053 201.58 168.501 201.796C167.957 202.012 167.361 202.12 166.713 202.12ZM166.701 200.752C167.125 200.752 167.517 200.68 167.877 200.536C168.237 200.392 168.549 200.188 168.813 199.924C169.077 199.652 169.281 199.34 169.425 198.988C169.577 198.628 169.653 198.232 169.653 197.8C169.653 197.368 169.577 196.976 169.425 196.624C169.281 196.264 169.077 195.952 168.813 195.688C168.549 195.416 168.237 195.208 167.877 195.064C167.517 194.92 167.125 194.848 166.701 194.848C166.277 194.848 165.885 194.92 165.525 195.064C165.173 195.208 164.861 195.416 164.589 195.688C164.325 195.952 164.117 196.264 163.965 196.624C163.821 196.976 163.749 197.368 163.749 197.8C163.749 198.224 163.821 198.616 163.965 198.976C164.117 199.336 164.325 199.652 164.589 199.924C164.853 200.188 165.165 200.392 165.525 200.536C165.885 200.68 166.277 200.752 166.701 200.752ZM180.264 202L176.592 193.6H178.284L181.56 201.196H180.588L183.9 193.6H185.46L181.8 202H180.264ZM192.947 197.092H197.123V198.376H192.947V197.092ZM193.067 200.692H197.807V202H191.507V193.6H197.639V194.908H193.067V200.692ZM204.706 202V193.6H205.99L209.662 199.732H208.99L212.602 193.6H213.886L213.898 202H212.422L212.41 195.916H212.722L209.65 201.04H208.954L205.834 195.916H206.194V202H204.706ZM222.767 197.092H226.943V198.376H222.767V197.092ZM222.887 200.692H227.627V202H221.327V193.6H227.459V194.908H222.887V200.692ZM234.526 202V193.6H235.81L241.078 200.068H240.442V193.6H241.99V202H240.706L235.438 195.532H236.074V202H234.526ZM251.105 202V194.92H248.321V193.6H255.449V194.92H252.665V202H251.105Z" fill="white"/>
<path fill-rule="evenodd" clip-rule="evenodd" d="M181.918 144.718C181.89 144.707 181.851 144.702 181.801 144.702H181.752V144.934H181.83C181.878 144.934 181.914 144.924 181.941 144.904C181.967 144.885 181.981 144.853 181.981 144.809C181.981 144.766 181.96 144.735 181.918 144.718ZM181.549 145.36V144.561C181.597 144.561 181.669 144.561 181.764 144.562C181.86 144.562 181.913 144.562 181.924 144.563C181.985 144.568 182.036 144.581 182.076 144.604C182.145 144.643 182.179 144.707 182.179 144.795C182.179 144.862 182.161 144.911 182.125 144.94C182.089 144.97 182.044 144.988 181.991 144.994C182.04 145.005 182.076 145.02 182.101 145.04C182.146 145.078 182.169 145.138 182.169 145.219V145.291L182.17 145.314L182.176 145.338L182.183 145.36H181.99C181.984 145.335 181.98 145.298 181.977 145.249C181.975 145.202 181.971 145.169 181.965 145.152L181.908 145.093L181.839 145.08L181.794 145.078H181.752V145.36H181.549ZM181.445 144.542C181.334 144.659 181.279 144.798 181.279 144.959C181.279 145.126 181.335 145.268 181.448 145.385C181.56 145.501 181.696 145.56 181.855 145.56C182.013 145.56 182.148 145.501 182.261 145.384C182.373 145.266 182.429 145.124 182.429 144.959C182.429 144.799 182.373 144.659 182.262 144.542C182.149 144.422 182.013 144.362 181.855 144.362C181.695 144.362 181.558 144.422 181.445 144.542ZM182.343 145.477C182.207 145.612 182.045 145.68 181.855 145.68C181.658 145.68 181.493 145.611 181.359 145.472C181.224 145.333 181.157 145.162 181.157 144.959C181.157 144.748 181.23 144.573 181.375 144.434C181.511 144.303 181.671 144.238 181.855 144.238C182.047 144.238 182.211 144.309 182.348 144.45C182.484 144.591 182.552 144.76 182.552 144.959C182.552 145.164 182.482 145.337 182.343 145.477Z" fill="#C0242B"/>
<mask id="mask0_2278_6961" style="mask-type:luminance" maskUnits="userSpaceOnUse" x="171" y="119" width="29" height="27">
<path d="M171.006 119.096H199.927V145.43H171.006V119.096Z" fill="white"/>
</mask>
<g mask="url(#mask0_2278_6961)">
<path fill-rule="evenodd" clip-rule="evenodd" d="M195.536 119.822C192.179 118.218 188.27 119.362 186.19 122.352C189.236 122.082 191.733 122.85 191.841 123.691L191.547 126.578L191.524 126.581C191.529 126.523 191.532 126.466 191.525 126.409C191.383 125.295 188.854 124.719 185.877 125.123C182.9 125.527 180.602 126.757 180.744 127.871C180.751 127.928 180.769 127.982 180.788 128.037L180.734 128.043L179.757 125.329C179.65 124.49 181.862 123.085 184.866 122.532C182.819 119.409 178.821 118.186 175.396 119.822C171.346 121.756 169.408 126.705 172.606 132.541C174.879 136.688 178.441 139.82 185.466 145.43C186.018 144.989 186.546 144.566 187.055 144.155C185.502 134.712 183.32 128.153 183.32 128.151V128.151C183.243 127.552 184.477 126.892 186.075 126.675C187.674 126.459 189.032 126.768 189.108 127.366C189.108 127.366 188.558 132.828 189.293 142.325C193.867 138.524 196.511 135.856 198.327 132.541C201.525 126.705 199.587 121.756 195.536 119.822Z" fill="#C0242B"/>
</g>
<path fill-rule="evenodd" clip-rule="evenodd" d="M189.228 114.318C187.985 115.088 187 116.946 187.477 118.809C189.156 116.261 194.262 118.56 195.96 112.711C194.829 113.647 193.351 113.914 192.605 113.827C195.388 112.643 196.981 108.437 194.489 105.561C195.224 108.951 191.027 109.245 187.732 109.879C181.544 111.077 180.535 116.969 183.343 119.975C183.019 116.41 185.783 114.283 189.228 114.318Z" fill="#C0242B"/>
<path fill-rule="evenodd" clip-rule="evenodd" d="M185.468 122.506C182.131 122.96 179.576 124.516 179.691 125.42L180.669 128.143L180.723 128.136C180.703 128.081 180.685 128.027 180.678 127.97C180.536 126.852 182.835 125.618 185.812 125.213C188.79 124.808 191.32 125.385 191.462 126.503C191.469 126.56 191.466 126.618 191.461 126.675L191.483 126.672L191.777 123.776C191.663 122.873 188.806 122.052 185.468 122.506Z" fill="#FFFFFE"/>
<path fill-rule="evenodd" clip-rule="evenodd" d="M189.296 142.481C188.552 132.948 189.108 127.464 189.108 127.464C189.031 126.864 187.658 126.553 186.042 126.77C184.425 126.988 183.177 127.651 183.254 128.252V128.252C183.255 128.254 185.462 134.839 187.033 144.318C187.835 143.675 188.589 143.065 189.296 142.481Z" fill="#FFFFFE"/>
<mask id="mask1_2278_6961" style="mask-type:luminance" maskUnits="userSpaceOnUse" x="188" y="123" width="11" height="20">
<path d="M189.281 142.506C189.2 141.468 189.136 140.479 189.084 139.538C189.084 139.538 189.084 139.538 189.084 139.538C189.084 139.534 189.084 139.53 189.083 139.526C189.083 139.526 189.083 139.526 189.083 139.525C189.083 139.523 189.083 139.52 189.083 139.518C188.788 134.163 188.911 130.431 189.012 128.662C190.472 128.135 191.444 127.407 191.507 126.705L191.53 126.702L191.823 123.804C191.817 123.751 191.801 123.699 191.776 123.646L198.955 131.318C198.765 131.768 198.549 132.224 198.297 132.687C197.971 133.284 197.619 133.86 197.234 134.426C195.475 137.012 193.026 139.376 189.281 142.506Z" fill="white"/>
</mask>
<g mask="url(#mask1_2278_6961)">
<path fill-rule="evenodd" clip-rule="evenodd" d="M189.281 142.506C189.2 141.468 189.136 140.479 189.084 139.538C189.084 139.538 189.084 139.538 189.084 139.538C189.084 139.534 189.084 139.53 189.083 139.526C189.083 139.526 189.083 139.526 189.083 139.525C189.083 139.523 189.083 139.52 189.083 139.518C188.788 134.163 188.911 130.431 189.012 128.662C190.472 128.135 191.444 127.407 191.507 126.705L191.53 126.702L191.823 123.804C191.817 123.751 191.801 123.699 191.776 123.646L198.955 131.318C198.765 131.768 198.549 132.224 198.297 132.687C197.971 133.284 197.619 133.86 197.234 134.426C195.475 137.012 193.026 139.376 189.281 142.506Z" fill="url(#paint8_linear_2278_6961)"/>
</g>
<path d="M249 267.068L256.341 235.274L264.575 252.9L281.352 262.756L249 267.068Z" fill="white"/>
<path d="M100.856 245L132.315 253.668L114.359 261.156L103.808 277.504L100.856 245Z" fill="white"/>
<path d="M115.03 105L111.51 137.44L101.244 120.915L83.4177 113.117L115.03 105Z" fill="white"/>
<path d="M276.985 132.76L245.502 124.182L263.436 116.643L273.94 100.264L276.985 132.76Z" fill="white"/>
<defs>
<linearGradient id="paint0_linear_2278_6961" x1="190.911" y1="87.6619" x2="368.405" y2="87.6619" gradientUnits="userSpaceOnUse">
<stop stop-color="#E58D42"/>
<stop offset="1" stop-color="#EFDC6D"/>
</linearGradient>
<linearGradient id="paint1_linear_2278_6961" x1="190.911" y1="279.867" x2="368.405" y2="279.867" gradientUnits="userSpaceOnUse">
<stop stop-color="#AD3DD7"/>
<stop offset="1" stop-color="#C93D90"/>
</linearGradient>
<linearGradient id="paint2_linear_2278_6961" x1="0.396484" y1="87.6619" x2="177.89" y2="87.6619" gradientUnits="userSpaceOnUse">
<stop stop-color="#B1D03D"/>
<stop offset="1" stop-color="#76CC8F"/>
</linearGradient>
<linearGradient id="paint3_linear_2278_6961" x1="0.396484" y1="279.867" x2="177.89" y2="279.867" gradientUnits="userSpaceOnUse">
<stop stop-color="#66ADE1"/>
<stop offset="1" stop-color="#5088D5"/>
</linearGradient>
<linearGradient id="paint4_linear_2278_6961" x1="190.601" y1="92.1604" x2="359.781" y2="92.1604" gradientUnits="userSpaceOnUse">
<stop stop-color="#E58D42"/>
<stop offset="1" stop-color="#EFDC6D"/>
</linearGradient>
<linearGradient id="paint5_linear_2278_6961" x1="190.601" y1="275.369" x2="359.781" y2="275.369" gradientUnits="userSpaceOnUse">
<stop stop-color="#AD3DD7"/>
<stop offset="1" stop-color="#C93D90"/>
</linearGradient>
<linearGradient id="paint6_linear_2278_6961" x1="161.234" y1="167.212" x2="59.7499" y2="54.2062" gradientUnits="userSpaceOnUse">
<stop stop-color="#B1D03D"/>
<stop offset="1" stop-color="#76CC8F"/>
</linearGradient>
<linearGradient id="paint7_linear_2278_6961" x1="9.02051" y1="275.369" x2="178.201" y2="275.369" gradientUnits="userSpaceOnUse">
<stop stop-color="#66ADE1"/>
<stop offset="1" stop-color="#5088D5"/>
</linearGradient>
<linearGradient id="paint8_linear_2278_6961" x1="1150.16" y1="1066.61" x2="208.688" y2="1066.61" gradientUnits="userSpaceOnUse">
<stop stop-color="#C0242B"/>
<stop offset="0.97173" stop-color="#850303"/>
</linearGradient>
</defs>
</svg>
