<svg width="368" height="368" viewBox="0 0 368 368" fill="none" xmlns="http://www.w3.org/2000/svg">
<path opacity="0.4" d="M190.502 0V141.515C190.502 160.295 205.728 175.534 224.528 175.534H368C363.665 79.9069 286.414 3.33981 190.517 0H190.502Z" fill="url(#paint0_linear_11390_1224)"/>
<path opacity="0.4" d="M190.502 226.485V368C286.399 364.66 363.666 288.093 367.985 192.466H224.514C205.729 192.466 190.487 207.689 190.487 226.485H190.502Z" fill="url(#paint1_linear_11390_1224)"/>
<path opacity="0.4" d="M177.483 141.515V0C81.5865 3.33981 4.31938 79.9069 0 175.534H143.472C162.256 175.534 177.498 160.311 177.498 141.515H177.483Z" fill="url(#paint2_linear_11390_1224)"/>
<path opacity="0.4" d="M143.472 192.466H0C4.33491 288.093 81.5865 364.66 177.483 368V226.485C177.483 207.705 162.256 192.466 143.456 192.466H143.472Z" fill="url(#paint3_linear_11390_1224)"/>
<path d="M190.193 8.62109V143.503C190.193 161.414 204.704 175.922 222.619 175.922H359.363C355.23 84.7843 281.599 11.8056 190.193 8.62109Z" fill="url(#paint4_linear_11390_1224)"/>
<path d="M190.193 224.498V359.38C281.599 356.195 355.23 283.217 359.363 192.079H222.619C204.704 192.079 190.193 206.587 190.193 224.498Z" fill="url(#paint5_linear_11390_1224)"/>
<path d="M177.791 143.503V8.62109C86.3849 11.8056 12.7535 84.7843 8.62061 175.922H145.365C163.279 175.922 177.791 161.414 177.791 143.503Z" fill="url(#paint6_linear_11390_1224)"/>
<path d="M145.365 192.078H8.62061C12.7535 283.216 86.3849 356.195 177.791 359.379V224.498C177.791 206.587 163.279 192.078 145.365 192.078Z" fill="url(#paint7_linear_11390_1224)"/>
<path d="M267.701 268.858C314.403 222.166 314.403 146.465 267.701 99.7738C221 53.0826 145.283 53.0826 98.5815 99.7738C51.8803 146.465 51.8803 222.166 98.5815 268.858C145.283 315.549 221 315.549 267.701 268.858Z" fill="#FDF9F9"/>
<mask id="mask0_11390_1224" style="mask-type:alpha" maskUnits="userSpaceOnUse" x="71" y="72" width="224" height="224">
<path d="M294.58 184.133C294.58 122.501 244.688 72.6195 183.143 72.72C121.598 72.8206 71.7058 122.865 71.7058 184.497C71.7058 246.129 121.598 296.011 183.143 295.91C244.688 295.81 294.58 245.765 294.58 184.133Z" fill="#636466"/>
</mask>
<g mask="url(#mask0_11390_1224)">
<path opacity="0.2" d="M294.58 184.134C294.58 122.502 244.688 72.6204 183.143 72.721C121.598 72.8215 71.7058 122.866 71.7058 184.498C71.7058 246.13 121.598 296.012 183.143 295.911C244.688 295.811 294.58 245.766 294.58 184.134Z" fill="#C10E21"/>
<path opacity="0.2" d="M170.066 197.691H146.768C145.885 197.691 145.039 197.34 144.415 196.715C143.791 196.09 143.44 195.242 143.44 194.358V174.36C143.44 173.476 143.791 172.629 144.415 172.004C145.039 171.379 145.885 171.027 146.768 171.027H170.066V147.697C170.066 146.813 170.416 145.965 171.04 145.34C171.665 144.715 172.511 144.364 173.394 144.364H193.363C194.246 144.364 195.092 144.715 195.717 145.34C196.341 145.965 196.691 146.813 196.691 147.697V171.027H219.989C220.872 171.027 221.718 171.379 222.342 172.004C222.966 172.629 223.317 173.476 223.317 174.36V194.358C223.317 195.242 222.966 196.09 222.342 196.715C221.718 197.34 220.872 197.691 219.989 197.691H196.691V221.022C196.691 221.905 196.341 222.753 195.717 223.378C195.092 224.003 194.246 224.354 193.363 224.354H173.394C172.511 224.354 171.665 224.003 171.04 223.378C170.416 222.753 170.066 221.905 170.066 221.022V197.691Z" fill="#C10E21"/>
<path d="M170.066 197.691H146.768C145.885 197.691 145.039 197.34 144.415 196.715C143.791 196.09 143.44 195.242 143.44 194.358V174.36C143.44 173.476 143.791 172.629 144.415 172.004C145.039 171.379 145.885 171.027 146.768 171.027H170.066V147.697C170.066 146.813 170.416 145.965 171.04 145.34C171.665 144.715 172.511 144.364 173.394 144.364H193.363C194.246 144.364 195.092 144.715 195.717 145.34C196.341 145.965 196.691 146.813 196.691 147.697V171.027H219.989C220.872 171.027 221.718 171.379 222.342 172.004C222.966 172.629 223.317 173.476 223.317 174.36V194.358C223.317 195.242 222.966 196.09 222.342 196.715C221.718 197.34 220.872 197.691 219.989 197.691H196.691V221.022C196.691 221.905 196.341 222.753 195.717 223.378C195.092 224.003 194.246 224.354 193.363 224.354H173.394C172.511 224.354 171.665 224.003 171.04 223.378C170.416 222.753 170.066 221.905 170.066 221.022V197.691Z" stroke="#C10E21" stroke-width="2" stroke-linecap="round" stroke-linejoin="round"/>
</g>
<defs>
<linearGradient id="paint0_linear_11390_1224" x1="190.502" y1="87.7671" x2="367.985" y2="87.7671" gradientUnits="userSpaceOnUse">
<stop stop-color="#C10B1E"/>
<stop offset="1" stop-color="#8F000F"/>
</linearGradient>
<linearGradient id="paint1_linear_11390_1224" x1="190.502" y1="280.233" x2="367.985" y2="280.233" gradientUnits="userSpaceOnUse">
<stop stop-color="#7B1416"/>
<stop offset="1" stop-color="#C10B1E"/>
</linearGradient>
<linearGradient id="paint2_linear_11390_1224" x1="0" y1="87.7671" x2="177.483" y2="87.7671" gradientUnits="userSpaceOnUse">
<stop stop-color="#C10B1E"/>
<stop offset="1" stop-color="#9F0314"/>
</linearGradient>
<linearGradient id="paint3_linear_11390_1224" x1="0" y1="280.233" x2="177.483" y2="280.233" gradientUnits="userSpaceOnUse">
<stop stop-color="#C10B1E"/>
<stop offset="1" stop-color="#7B1416"/>
</linearGradient>
<linearGradient id="paint4_linear_11390_1224" x1="349.582" y1="42.0433" x2="245.493" y2="114.003" gradientUnits="userSpaceOnUse">
<stop stop-color="#9F0314"/>
<stop offset="1" stop-color="#C10B1E"/>
</linearGradient>
<linearGradient id="paint5_linear_11390_1224" x1="335.583" y1="292.382" x2="255.521" y2="240.416" gradientUnits="userSpaceOnUse">
<stop stop-color="#8F000F"/>
<stop offset="1" stop-color="#C10B1E"/>
</linearGradient>
<linearGradient id="paint6_linear_11390_1224" x1="127.593" y1="116.144" x2="59.1766" y2="54.4163" gradientUnits="userSpaceOnUse">
<stop stop-color="#C10B1E"/>
<stop offset="1" stop-color="#9F0314"/>
</linearGradient>
<linearGradient id="paint7_linear_11390_1224" x1="115.593" y1="254.33" x2="51.5039" y2="320.329" gradientUnits="userSpaceOnUse">
<stop stop-color="#C10B1E"/>
<stop offset="1" stop-color="#8F000F"/>
</linearGradient>
</defs>
</svg>
