<svg width="242" height="242" viewBox="0 0 242 242" fill="none" xmlns="http://www.w3.org/2000/svg">
<path opacity="0.4" d="M125.209 0V92.8802C125.209 105.206 135.217 115.208 147.573 115.208H241.871C239.022 52.4452 188.248 2.19201 125.219 0H125.209Z" fill="url(#paint0_linear_13207_1031)"/>
<path opacity="0.4" d="M125.209 148.649V241.529C188.238 239.337 239.023 189.084 241.862 126.321H147.564C135.217 126.321 125.199 136.312 125.199 148.649H125.209Z" fill="url(#paint1_linear_13207_1031)"/>
<path opacity="0.4" d="M116.652 92.8802V0C53.6235 2.19201 2.83895 52.4452 0 115.208H94.2981C106.644 115.208 116.663 105.217 116.663 92.8802H116.652Z" fill="url(#paint2_linear_13207_1031)"/>
<path opacity="0.4" d="M94.2981 126.321H0C2.84916 189.084 53.6235 239.337 116.652 241.529V148.649C116.652 136.323 106.644 126.321 94.2879 126.321H94.2981Z" fill="url(#paint3_linear_13207_1031)"/>
<path d="M125.006 5.6582V94.1849C125.006 105.94 134.544 115.463 146.318 115.463H236.195C233.478 55.6463 185.083 7.74826 125.006 5.6582Z" fill="url(#paint4_linear_13207_1031)"/>
<path d="M125.006 147.344V235.871C185.083 233.781 233.478 185.883 236.195 126.067H146.318C134.544 126.067 125.006 135.589 125.006 147.344Z" fill="url(#paint5_linear_13207_1031)"/>
<path d="M116.855 94.1849V5.6582C56.7773 7.74826 8.38242 55.6463 5.66602 115.463H95.5423C107.317 115.463 116.855 105.94 116.855 94.1849Z" fill="url(#paint6_linear_13207_1031)"/>
<path d="M95.5423 126.066H5.66602C8.38242 185.883 56.7773 233.781 116.855 235.871V147.344C116.855 135.589 107.317 126.066 95.5423 126.066Z" fill="url(#paint7_linear_13207_1031)"/>
<path d="M175.949 176.459C206.644 145.814 206.644 96.1292 175.949 65.4844C145.255 34.8397 95.4886 34.8397 64.7938 65.4844C34.099 96.1292 34.099 145.814 64.7938 176.459C95.4886 207.104 145.255 207.104 175.949 176.459Z" fill="#FDF9F9"/>
<mask id="mask0_13207_1031" style="mask-type:alpha" maskUnits="userSpaceOnUse" x="47" y="47" width="147" height="148">
<path d="M193.615 120.852C193.615 80.4009 160.823 47.6624 120.372 47.7284C79.9214 47.7944 47.1294 80.6399 47.1294 121.091C47.1294 161.542 79.9214 194.28 120.372 194.214C160.823 194.148 193.615 161.303 193.615 120.852Z" fill="#636466"/>
</mask>
<g mask="url(#mask0_13207_1031)">
<path opacity="0.2" d="M193.615 120.852C193.615 80.4014 160.823 47.6629 120.372 47.7288C79.9214 47.7948 47.1294 80.6404 47.1294 121.091C47.1294 161.542 79.9214 194.281 120.372 194.215C160.823 194.149 193.615 161.303 193.615 120.852Z" fill="#C10E21"/>
<path d="M128.738 156.89C127.163 136.849 128.34 125.319 128.34 125.319C128.177 124.057 125.263 123.406 121.835 123.858C118.406 124.318 115.763 125.71 115.925 126.972C115.925 126.979 120.604 140.82 123.938 160.752C125.642 159.401 127.244 158.118 128.738 156.89Z" fill="white"/>
<path d="M128.442 97.7939C125.778 99.4194 123.669 103.35 124.69 107.293C128.287 101.909 139.227 106.765 142.865 94.3988C140.438 96.381 137.273 96.9434 135.678 96.7582C141.641 94.2548 145.049 85.3589 139.714 79.282C141.29 86.4494 132.297 87.0736 125.237 88.4111C111.977 90.942 109.814 103.404 115.832 109.756C115.142 102.218 121.065 97.7253 128.442 97.7939Z" fill="#D12F36"/>
<path d="M120.68 114.885C113.526 115.838 108.049 119.117 108.292 121.017L110.389 126.744L110.504 126.73C110.463 126.613 110.422 126.504 110.409 126.38C110.105 124.028 115.034 121.435 121.417 120.578C127.8 119.727 133.223 120.941 133.528 123.294C133.541 123.41 133.534 123.534 133.528 123.657L133.575 123.65L134.204 117.56C133.96 115.66 127.834 113.932 120.68 114.885Z" fill="white"/>
<path d="M142.124 109.392C134.923 106.011 126.538 108.425 122.082 114.736C128.202 114.201 133.286 115.593 134.098 117.225C134.152 117.335 134.193 117.452 134.206 117.561L133.577 123.652L133.53 123.659C133.543 123.535 133.55 123.419 133.53 123.295C133.226 120.943 127.803 119.729 121.419 120.579C115.036 121.43 110.107 124.029 110.411 126.382C110.425 126.505 110.465 126.615 110.506 126.732L110.391 126.745L108.295 121.018C108.065 119.249 112.812 116.279 119.249 115.113C114.86 108.521 106.286 105.943 98.9431 109.392C90.2541 113.473 86.1024 123.919 92.9589 136.238C97.8341 144.99 105.475 151.602 120.54 163.44C121.724 162.507 122.853 161.615 123.948 160.744C120.615 140.813 115.936 126.972 115.936 126.965C115.773 125.703 118.417 124.31 121.845 123.851C125.274 123.391 128.181 124.043 128.35 125.312C128.35 125.312 128.262 126.169 128.174 127.767C127.918 132.143 127.6 142.239 128.749 156.883C138.561 148.858 144.227 143.227 148.122 136.231C148.663 135.257 149.129 134.304 149.535 133.357L149.528 133.35C154.255 122.308 150.123 113.151 142.124 109.392Z" fill="#D12F36"/>
<path d="M134.097 117.225C134.151 117.335 134.191 117.452 134.205 117.561L133.576 123.652L133.529 123.659C133.393 125.134 131.304 126.67 128.167 127.774C127.91 132.15 127.592 142.246 128.741 156.89C138.553 148.865 144.219 143.234 148.114 136.238C148.655 135.264 149.122 134.311 149.527 133.364L134.097 117.225Z" fill="url(#paint8_linear_13207_1031)"/>
</g>
<defs>
<linearGradient id="paint0_linear_13207_1031" x1="125.209" y1="57.6041" x2="241.861" y2="57.6041" gradientUnits="userSpaceOnUse">
<stop stop-color="#C10B1E"/>
<stop offset="1" stop-color="#8F000F"/>
</linearGradient>
<linearGradient id="paint1_linear_13207_1031" x1="125.209" y1="183.925" x2="241.862" y2="183.925" gradientUnits="userSpaceOnUse">
<stop stop-color="#7B1416"/>
<stop offset="1" stop-color="#C10B1E"/>
</linearGradient>
<linearGradient id="paint2_linear_13207_1031" x1="0" y1="57.6041" x2="116.652" y2="57.6041" gradientUnits="userSpaceOnUse">
<stop stop-color="#C10B1E"/>
<stop offset="1" stop-color="#9F0314"/>
</linearGradient>
<linearGradient id="paint3_linear_13207_1031" x1="0" y1="183.925" x2="116.652" y2="183.925" gradientUnits="userSpaceOnUse">
<stop stop-color="#C10B1E"/>
<stop offset="1" stop-color="#7B1416"/>
</linearGradient>
<linearGradient id="paint4_linear_13207_1031" x1="229.766" y1="27.5942" x2="161.415" y2="74.9139" gradientUnits="userSpaceOnUse">
<stop stop-color="#9F0314"/>
<stop offset="1" stop-color="#C10B1E"/>
</linearGradient>
<linearGradient id="paint5_linear_13207_1031" x1="220.565" y1="191.899" x2="167.988" y2="157.724" gradientUnits="userSpaceOnUse">
<stop stop-color="#8F000F"/>
<stop offset="1" stop-color="#C10B1E"/>
</linearGradient>
<linearGradient id="paint6_linear_13207_1031" x1="83.8616" y1="76.2283" x2="38.9516" y2="35.6516" gradientUnits="userSpaceOnUse">
<stop stop-color="#C10B1E"/>
<stop offset="1" stop-color="#9F0314"/>
</linearGradient>
<linearGradient id="paint7_linear_13207_1031" x1="75.9749" y1="166.924" x2="33.9129" y2="210.301" gradientUnits="userSpaceOnUse">
<stop stop-color="#C10B1E"/>
<stop offset="1" stop-color="#8F000F"/>
</linearGradient>
<linearGradient id="paint8_linear_13207_1031" x1="127.852" y1="137.057" x2="149.892" y2="137.057" gradientUnits="userSpaceOnUse">
<stop stop-color="#7B1416"/>
<stop offset="1" stop-color="#CE242B"/>
</linearGradient>
</defs>
</svg>
