<?xml version="1.0" encoding="UTF-8"?>
<svg id="Layer_2" data-name="Layer 2" xmlns="http://www.w3.org/2000/svg" xmlns:xlink="http://www.w3.org/1999/xlink" viewBox="0 0 37.87 42.1">
  <defs>
    <style>
      .cls-1 {
        stroke: #ce242b;
        stroke-linecap: round;
        stroke-linejoin: round;
      }

      .cls-1, .cls-2 {
        fill: none;
      }

      .cls-3 {
        clip-path: url(#clippath);
      }

      .cls-2 {
        stroke-width: 0px;
      }
    </style>
    <clipPath id="clippath">
      <rect class="cls-2" width="37.87" height="42.1"/>
    </clipPath>
  </defs>
  <g id="Layer_1-2" data-name="Layer 1">
    <g class="cls-3">
      <path class="cls-1" d="m18.93,41.6l6.27-4.66c3.13-2.32,5.8-5.22,7.86-8.52,2.81-4.5,4.3-9.71,4.3-15.02v-7.16c-.77.08-1.55.11-2.35.11-3.47,0-6.76-.71-9.77-1.98-2.29-.97-4.42-2.28-6.31-3.87-1.88,1.59-4.02,2.89-6.32,3.87-3,1.27-6.31,1.98-9.76,1.98-.8,0-1.59-.03-2.35-.11v7.16c0,5.31,1.49,10.52,4.3,15.02,2.07,3.31,4.73,6.2,7.86,8.52l6.27,4.66Zm5.72-24.85v-2.29c0-3.17-2.56-5.73-5.72-5.73s-5.72,2.57-5.72,5.73v2.29m3.87,5.71c0-1.03.83-1.86,1.86-1.86s1.86.83,1.86,1.86-.83,1.86-1.86,1.86-1.86-.83-1.86-1.86Zm-7.32,3.52v-9.23h18.35v9.23c0,2.32-1.88,4.21-4.2,4.21h-9.95c-2.32,0-4.2-1.88-4.2-4.21Zm9.18,15.62l6.27-4.66c3.13-2.32,5.8-5.22,7.86-8.52,2.81-4.5,4.3-9.71,4.3-15.02v-7.16c-.77.08-1.55.11-2.35.11-3.47,0-6.76-.71-9.77-1.98-2.29-.97-4.42-2.28-6.31-3.87-1.88,1.59-4.02,2.89-6.32,3.87-3,1.27-6.31,1.98-9.76,1.98-.8,0-1.59-.03-2.35-.11v7.16c0,5.31,1.49,10.52,4.3,15.02,2.07,3.31,4.73,6.2,7.86,8.52l6.27,4.66Zm0,0l-6.27-4.66c-3.13-2.32-5.8-5.22-7.86-8.52C1.99,23.92.5,18.71.5,13.4v-7.16c.77.08,1.55.11,2.35.11,3.47,0,6.76-.71,9.77-1.98,2.29-.97,4.42-2.28,6.31-3.87,1.88,1.59,4.02,2.89,6.32,3.87,3,1.27,6.31,1.98,9.76,1.98.8,0,1.59-.03,2.35-.11v7.16c0,5.31-1.49,10.52-4.3,15.02-2.07,3.31-4.73,6.2-7.86,8.52l-6.27,4.66Z"/>
    </g>
  </g>
</svg>