<?xml version="1.0" encoding="UTF-8"?>
<svg id="Layer_2" data-name="Layer 2" xmlns="http://www.w3.org/2000/svg" xmlns:xlink="http://www.w3.org/1999/xlink" viewBox="0 0 27.45 49.22">
  <defs>
    <style>
      .cls-1 {
        clip-path: url(#clippath);
      }

      .cls-2, .cls-3, .cls-4 {
        fill: none;
      }

      .cls-2, .cls-5 {
        stroke-width: 0px;
      }

      .cls-3 {
        stroke-linecap: round;
        stroke-linejoin: round;
      }

      .cls-3, .cls-4 {
        stroke: #d12d36;
        stroke-width: 1.18px;
      }

      .cls-4 {
        stroke-miterlimit: 10;
      }

      .cls-5 {
        fill: #d12d36;
      }
    </style>
    <clipPath id="clippath">
      <rect class="cls-2" width="27.45" height="49.22"/>
    </clipPath>
  </defs>
  <g id="Layer_1-2" data-name="Layer 1">
    <g class="cls-1">
      <path class="cls-5" d="m16.3,16.53c-.8.48-1.43,1.64-1.13,2.81,1.08-1.59,4.36-.16,5.45-3.81-.73.59-1.68.75-2.16.7,1.79-.74,2.81-3.37,1.21-5.17.47,2.12-2.23,2.3-4.34,2.7-3.98.75-4.63,4.43-2.82,6.31-.21-2.23,1.57-3.56,3.78-3.54"/>
      <path class="cls-5" d="m20.41,19.96c-2.16-1-4.67-.29-6.01,1.58,1.84-.16,3.36.25,3.6.74.02.03.03.07.03.1l-.19,1.8h-.01s0-.07,0-.11c-.09-.69-1.72-1.05-3.63-.8-1.91.25-3.39,1.02-3.3,1.72,0,.04.02.07.03.1h-.03s-.63-1.69-.63-1.69c-.07-.52,1.35-1.4,3.29-1.75-1.32-1.95-3.89-2.71-6.09-1.69-2.6,1.21-3.85,4.3-1.8,7.94,1.46,2.59,3.75,4.54,8.27,8.05.36-.28.7-.54,1.02-.8-1-5.89-2.4-9.99-2.4-9.99-.05-.37.74-.79,1.77-.92s1.9.06,1.95.43c0,0-.03.25-.05.73-.08,1.29-.17,4.28.17,8.61,2.94-2.37,4.64-4.04,5.81-6.11.16-.29.3-.57.42-.85h0c1.42-3.27.18-5.98-2.22-7.09"/>
      <path class="cls-4" d="m4.92,1.76h18.01c1.63,0,2.94,1.32,2.94,2.94v40.04c0,1.63-1.32,2.95-2.95,2.95H4.92c-1.63,0-2.95-1.32-2.95-2.95V4.7c0-1.63,1.32-2.95,2.95-2.95Z"/>
      <path class="cls-3" d="m13.87,44.34h.11M11.51,4.18h4.83"/>
    </g>
  </g>
</svg>