<?xml version="1.0" encoding="UTF-8"?>
<svg id="Layer_2" data-name="Layer 2" xmlns="http://www.w3.org/2000/svg" xmlns:xlink="http://www.w3.org/1999/xlink" viewBox="0 0 61.54 61.54">
  <defs>
    <style>
      .cls-1 {
        clip-path: url(#clippath);
      }

      .cls-2, .cls-3, .cls-4 {
        fill: none;
      }

      .cls-2, .cls-5, .cls-6, .cls-7, .cls-8 {
        stroke-width: 0px;
      }

      .cls-3 {
        stroke-width: .94px;
      }

      .cls-3, .cls-4 {
        stroke: #636466;
        stroke-miterlimit: 10;
      }

      .cls-4 {
        stroke-width: .31px;
      }

      .cls-5 {
        fill: #4d4d4f;
      }

      .cls-6 {
        fill: #636466;
      }

      .cls-7 {
        fill: #ce242b;
      }

      .cls-8 {
        fill: #fff;
      }
    </style>
    <clipPath id="clippath">
      <rect class="cls-2" y="0" width="61.54" height="61.54"/>
    </clipPath>
  </defs>
  <g id="Layer_1-2" data-name="Layer 1">
    <g class="cls-1">
      <path class="cls-8" d="m61.54,30.77c0,16.99-13.78,30.77-30.77,30.77S0,47.76,0,30.77,13.78,0,30.77,0s30.77,13.78,30.77,30.77"/>
      <path class="cls-8" d="m59.05,30.59c0-15.45-12.57-28.02-28.02-28.02S3,15.14,3,30.59s12.57,28.02,28.02,28.02,28.02-12.57,28.02-28.02"/>
      <path class="cls-4" d="m59.05,30.59c0-15.45-12.57-28.02-28.02-28.02S3,15.14,3,30.59s12.57,28.02,28.02,28.02,28.02-12.57,28.02-28.02Z"/>
      <path class="cls-5" d="m7.52,39.32l-.32-1-.7-.02-.17-.52,2.93.12.18.56-2.3,1.82-.18-.54.56-.43Zm.36-.27l.91-.69-1.14-.02.23.72Z"/>
      <polygon class="cls-5" points="11.08 42.13 8.61 43.36 8.38 42.88 10.22 41.97 8.65 41.94 8.46 41.56 9.4 40.3 7.55 41.22 7.32 40.76 9.78 39.53 10.1 40.16 9.14 41.46 10.77 41.52 11.08 42.13"/>
      <polygon class="cls-5" points="11.4 42.69 12.31 44.07 11.92 44.33 11.3 43.4 10.74 43.77 11.33 44.68 10.95 44.93 10.36 44.02 9.8 44.4 10.43 45.35 10.03 45.61 9.1 44.21 11.4 42.69"/>
      <path class="cls-5" d="m12.2,47.62l-.36.29-.06-.07c-.08-.1-.13-.18-.17-.26-.03-.08-.05-.18-.05-.3,0-.12.04-.27.1-.45l.19-.59-.19-.23-.83.67-.34-.42,2.14-1.72.61.76c.12.15.2.3.23.45.03.15.02.29-.03.43-.05.13-.14.25-.26.35-.13.11-.28.17-.45.19-.17.02-.33-.02-.49-.11l-.13.47c-.04.13-.05.23-.05.3,0,.07.03.15.09.22l.03.04Zm-.2-1.89l.22.27c.08.1.17.16.28.18.11.02.21-.01.32-.1.1-.08.15-.18.16-.28,0-.1-.04-.21-.12-.31l-.22-.27-.63.51Z"/>
      <rect class="cls-5" x="12.08" y="47.35" width="2.75" height=".54" transform="translate(-29.44 22.95) rotate(-44.32)"/>
      <path class="cls-5" d="m13.73,49.6c-.09-.23-.1-.47-.05-.71.05-.24.17-.46.35-.67.18-.21.39-.35.63-.43.24-.08.48-.09.72-.03s.47.18.68.36c.15.13.27.28.35.43.09.16.15.32.17.48l-.5.15c-.05-.27-.17-.5-.36-.67-.13-.12-.27-.19-.42-.23-.15-.03-.3-.02-.45.03-.15.05-.28.14-.39.27-.11.13-.19.27-.22.42-.04.15-.03.3.02.45.05.15.14.28.27.4.2.18.45.28.75.32l-.1.49c-.37-.03-.71-.17-1.01-.44-.21-.19-.36-.4-.44-.63"/>
      <path class="cls-5" d="m17.09,51.63l-.86-.6-.57.42-.45-.31,2.41-1.68.48.33-.73,2.84-.47-.32.19-.68Zm.12-.44l.31-1.1-.92.67.62.43Z"/>
      <polygon class="cls-5" points="21.27 51.59 19.99 54.03 19.53 53.78 19.24 51.46 18.34 53.16 17.89 52.92 19.17 50.48 19.63 50.73 19.91 53.05 20.81 51.35 21.27 51.59"/>
      <polygon class="cls-5" points="24.85 52.96 24 55.58 23.48 55.41 23.83 54.33 22.67 53.95 22.32 55.03 21.81 54.87 22.66 52.25 23.17 52.42 22.82 53.5 23.98 53.88 24.33 52.79 24.85 52.96"/>
      <polygon class="cls-5" points="25.42 53.07 27.04 53.42 26.94 53.89 25.85 53.65 25.7 54.31 26.76 54.54 26.66 54.98 25.61 54.75 25.46 55.41 26.58 55.66 26.48 56.12 24.84 55.76 25.42 53.07"/>
      <path class="cls-5" d="m28.84,55.79l-1.04-.12-.31.64-.54-.06,1.33-2.62.58.07.7,2.85-.57-.06-.16-.69Zm-.1-.44l-.25-1.11-.5,1.03.75.09Z"/>
      <path class="cls-5" d="m32.29,56.04v.47s-.09,0-.09,0c-.12,0-.22,0-.31-.03-.08-.02-.17-.07-.26-.15-.09-.08-.19-.2-.3-.36l-.35-.52h-.3s.01,1.07.01,1.07h-.54s-.03-2.75-.03-2.75h.97c.19-.01.36.02.5.09.14.07.25.16.32.28s.11.26.11.41c0,.17-.04.33-.13.47s-.22.25-.39.32l.29.39c.08.11.15.18.21.23.06.05.14.07.23.07h.05Zm-1.61-1.01h.35c.13,0,.23-.04.31-.11.08-.07.12-.18.12-.31,0-.13-.04-.23-.13-.3-.08-.07-.19-.1-.32-.1h-.35s.01.82.01.82Z"/>
      <polygon class="cls-5" points="34.32 54.01 33.61 54.09 33.87 56.36 33.33 56.42 33.07 54.15 32.35 54.24 32.29 53.77 34.27 53.54 34.32 54.01"/>
      <path class="cls-5" d="m37.5,54.96l-1.02.25-.07.7-.53.13.34-2.91.57-.14,1.64,2.43-.55.13-.38-.59Zm-.24-.38l-.62-.96-.11,1.14.73-.18Z"/>
      <path class="cls-5" d="m39.21,55.16c-.18,0-.36-.03-.54-.11l.13-.5c.12.05.25.09.39.1.15.01.29,0,.42-.06.14-.05.23-.12.28-.2.05-.08.06-.17.03-.26-.02-.06-.06-.1-.11-.13-.05-.03-.12-.04-.2-.05-.09,0-.22,0-.39,0-.17,0-.32,0-.44-.02-.12-.02-.23-.07-.33-.14-.1-.07-.17-.18-.23-.32-.06-.15-.07-.3-.04-.45.03-.14.11-.27.22-.39.11-.11.26-.2.44-.27.16-.06.33-.09.5-.09s.31.03.44.08l-.13.48c-.1-.05-.21-.07-.32-.07-.11,0-.22.01-.33.05-.12.05-.21.11-.26.18-.05.07-.06.15-.03.24.02.06.06.1.1.12.05.03.12.04.21.05.09,0,.22,0,.39,0,.18,0,.33,0,.45.02.12.02.23.07.33.14s.17.19.23.34c.06.16.07.31.04.46s-.11.28-.23.4-.27.21-.45.28c-.19.07-.38.11-.56.11"/>
      <path class="cls-5" d="m41.46,54.19c-.18.02-.36,0-.54-.05l.08-.51c.12.04.26.06.4.06.15,0,.28-.04.41-.1.13-.06.22-.14.26-.22.04-.09.04-.17,0-.26-.03-.06-.07-.1-.12-.12-.05-.02-.12-.03-.21-.03-.09,0-.21.01-.39.04-.17.02-.31.03-.44.02-.12,0-.24-.04-.34-.11-.1-.06-.19-.16-.26-.3-.07-.15-.1-.3-.08-.44.02-.15.08-.28.18-.41.1-.12.24-.23.42-.32.16-.08.32-.12.48-.14.17-.02.31,0,.45.04l-.08.49c-.1-.04-.21-.05-.33-.04-.11,0-.22.03-.32.09-.12.06-.2.13-.24.2-.04.08-.05.16,0,.24.03.05.07.09.12.11.05.02.12.03.21.03.09,0,.22-.01.39-.04.18-.02.33-.03.45-.02.12,0,.24.04.34.11.1.06.19.17.26.31.08.15.1.31.08.46-.02.15-.08.29-.19.42-.11.13-.25.24-.42.32-.19.09-.37.15-.55.17"/>
      <path class="cls-5" d="m43.99,52.91c-.25.02-.48-.03-.7-.15-.22-.12-.4-.29-.55-.53-.15-.23-.22-.48-.23-.72,0-.25.05-.48.17-.7.12-.22.3-.4.53-.54.23-.14.47-.23.72-.24.25-.02.48.03.7.15.22.11.4.29.55.52.15.23.22.47.23.72,0,.25-.05.48-.17.7-.12.22-.3.4-.54.55-.23.14-.47.22-.72.24m.77-1.02c.07-.14.1-.28.09-.44,0-.16-.06-.31-.15-.45-.09-.14-.2-.26-.34-.33-.14-.08-.28-.11-.43-.11-.15,0-.3.05-.44.14-.14.09-.25.2-.32.34-.07.14-.1.28-.09.44s.06.31.15.45c.09.15.2.26.34.33.14.08.28.11.44.11s.3-.05.44-.14c.14-.09.25-.2.32-.34"/>
      <path class="cls-5" d="m46.7,50.93c-.24.05-.48.03-.71-.05-.23-.09-.43-.23-.61-.44-.18-.21-.29-.44-.33-.68-.05-.24-.02-.48.07-.72.09-.23.24-.44.45-.62.15-.13.31-.23.48-.29.17-.06.33-.1.5-.1l.08.51c-.28.01-.52.1-.71.26-.13.11-.23.24-.28.39-.05.15-.07.3-.04.45.03.15.1.29.21.43.11.13.24.22.38.28.14.06.29.07.45.04.15-.03.3-.1.44-.22.2-.17.35-.4.43-.7l.47.17c-.08.36-.27.68-.58.94-.22.18-.44.3-.69.35"/>
      <rect class="cls-5" x="47.73" y="46.9" width=".54" height="2.75" transform="translate(-20.07 47.28) rotate(-44.32)"/>
      <path class="cls-5" d="m50.24,46.81l-.69.78.35.62-.36.41-1.38-2.59.39-.44,2.73,1.06-.38.43-.65-.27Zm-.42-.18l-1.06-.43.56,1,.5-.56Z"/>
      <polygon class="cls-5" points="50.58 43.7 50.17 44.29 52.05 45.59 51.74 46.03 49.87 44.73 49.45 45.33 49.06 45.06 50.2 43.43 50.58 43.7"/>
      <rect class="cls-5" x="51.53" y="42.18" width=".54" height="2.75" transform="translate(-12.07 65.95) rotate(-59.38)"/>
      <path class="cls-5" d="m53.61,42.68c-.2.15-.42.24-.67.26-.25.02-.5-.03-.75-.14-.25-.12-.45-.28-.59-.48-.14-.2-.22-.43-.24-.68-.01-.25.03-.5.15-.75.12-.25.27-.45.47-.59.2-.15.42-.23.67-.26.25-.02.49.02.74.14.25.12.44.28.59.48.14.2.22.43.24.68.02.25-.03.5-.15.75-.12.25-.27.44-.47.59m.09-1.27c-.01-.15-.07-.29-.16-.42-.09-.12-.22-.22-.37-.3-.15-.07-.31-.1-.47-.09-.16.01-.3.06-.42.15-.13.09-.23.21-.3.36-.07.15-.1.31-.09.46.01.15.07.29.16.42.09.13.22.22.37.3.15.07.31.1.47.09.15-.01.3-.06.42-.15.13-.09.22-.21.3-.36.07-.15.1-.31.09-.46"/>
      <polygon class="cls-5" points="53.11 37.01 55.73 37.86 55.57 38.35 53.33 39.03 55.15 39.63 55 40.12 52.38 39.27 52.54 38.77 54.78 38.1 52.95 37.5 53.11 37.01"/>
      <circle class="cls-3" cx="31.02" cy="30.59" r="20.76"/>
      <polygon class="cls-7" points="55.48 28.98 54.9 29.96 53.84 30.23 54.55 31.11 54.47 32.25 55.48 31.81 56.49 32.25 56.4 31.11 57.11 30.23 56.05 29.96 55.48 28.98"/>
      <polygon class="cls-7" points="6.66 28.98 6.08 29.96 5.02 30.23 5.73 31.11 5.65 32.25 6.66 31.81 7.67 32.25 7.58 31.11 8.29 30.23 7.23 29.96 6.66 28.98"/>
      <path class="cls-6" d="m8.97,25.61c-.2.23-.45.38-.74.46-.29.08-.59.08-.91,0-.33-.08-.6-.23-.81-.44-.22-.21-.36-.46-.44-.76-.08-.29-.07-.61,0-.94.06-.24.15-.44.27-.63.12-.18.26-.34.42-.47l.44.45c-.27.21-.44.47-.52.77-.05.21-.05.4,0,.59.05.18.14.34.28.47.14.13.31.22.51.27.2.05.39.05.58,0,.18-.05.34-.14.47-.28.13-.14.22-.31.28-.53.08-.32.05-.65-.07-.99l.58-.17c.18.42.21.87.09,1.34-.08.33-.23.61-.43.84"/>
      <polygon class="cls-6" points="6.81 21.66 7.57 19.79 8.1 20.01 7.59 21.27 8.34 21.58 8.84 20.36 9.36 20.57 8.86 21.79 9.61 22.1 10.14 20.8 10.67 21.02 9.89 22.93 6.81 21.66"/>
      <path class="cls-6" d="m11.84,17.77l.49.28-.06.1c-.07.13-.15.23-.22.31-.07.08-.18.14-.32.18-.14.05-.32.08-.56.09l-.76.04-.18.32,1.12.65-.33.57-2.89-1.67.6-1.03c.12-.2.25-.36.41-.46.16-.1.32-.16.5-.16.17,0,.34.04.5.14.18.1.31.25.4.43.09.18.12.39.09.61l.59-.06c.16-.02.28-.04.37-.08.08-.03.15-.1.21-.2l.03-.06Zm-2.06,1.06l.21-.37c.08-.13.1-.27.08-.4s-.11-.24-.25-.32c-.14-.08-.27-.1-.39-.05-.12.04-.22.14-.3.27l-.22.37.85.49Z"/>
      <polygon class="cls-6" points="11.71 14.31 11.18 15.01 13.37 16.69 12.97 17.21 10.78 15.53 10.24 16.24 9.78 15.89 11.26 13.96 11.71 14.31"/>
      <rect class="cls-6" x="13.01" y="12.51" width=".66" height="3.34" transform="translate(-6.13 14.27) rotate(-47.03)"/>
      <polygon class="cls-6" points="13.21 11.91 14.72 10.58 15.1 11.01 14.08 11.9 14.64 12.53 15.6 11.67 15.98 12.1 15.02 12.96 15.92 13.97 15.42 14.41 13.21 11.91"/>
      <rect class="cls-6" x="16.47" y="9.45" width=".66" height="3.34" transform="translate(-3.33 11.99) rotate(-35.98)"/>
      <polygon class="cls-6" points="17.11 8.86 18.86 7.84 19.14 8.34 17.97 9.03 18.38 9.73 19.52 9.07 19.8 9.55 18.66 10.21 19.07 10.92 20.28 10.21 20.57 10.71 18.79 11.75 17.11 8.86"/>
      <path class="cls-6" d="m22.09,6.64c.29.03.55.13.77.31.22.18.4.42.52.72.12.31.17.61.13.9-.04.29-.15.55-.34.78-.19.23-.44.4-.75.53l-1.17.47-1.24-3.1,1.16-.47c.31-.13.61-.17.91-.14m.68,2.17c.11-.26.1-.55-.03-.87-.13-.31-.32-.52-.57-.63-.26-.1-.54-.09-.86.03l-.47.19.82,2.04.47-.19c.32-.13.53-.32.64-.58"/>
      <path class="cls-6" d="m27.02,5.3c.19.06.34.16.46.3.12.14.19.31.23.51.03.19.02.37-.03.56-.06.18-.16.34-.32.47-.15.13-.35.22-.59.26l-.49.09.21,1.15-.65.12-.6-3.28,1.14-.21c.24-.04.46-.04.64.02m-.08,1.38c.09-.12.12-.26.09-.44-.03-.17-.11-.29-.23-.36-.12-.06-.27-.08-.46-.05l-.36.07.2,1.07.36-.07c.18-.03.31-.11.4-.22"/>
      <path class="cls-6" d="m31.33,7.61l.03.56h-.12c-.15.01-.27,0-.38-.02-.1-.02-.21-.08-.32-.17-.11-.09-.24-.23-.38-.42l-.44-.62-.36.02.06,1.3-.66.03-.15-3.33,1.19-.05c.23-.01.44.02.61.1.17.08.31.19.4.33s.15.31.16.5c0,.21-.04.4-.14.57-.1.17-.26.31-.46.41l.37.46c.1.13.19.22.26.27.08.05.17.08.29.07h.07Zm-2-1.16l.43-.02c.15,0,.28-.06.38-.15.1-.09.14-.22.14-.38,0-.16-.06-.28-.17-.36s-.23-.11-.39-.1l-.43.02.04.99Z"/>
      <path class="cls-6" d="m32.51,8.08c-.25-.17-.44-.4-.56-.67-.12-.28-.16-.58-.13-.91.04-.33.15-.62.33-.86.18-.24.41-.42.69-.53.28-.11.59-.15.92-.12.33.04.62.14.88.31s.44.4.56.67c.12.27.17.58.13.91-.04.33-.15.62-.33.86-.18.24-.41.42-.7.54-.28.12-.59.15-.93.12-.33-.04-.62-.14-.87-.31m1.51-.39c.17-.08.31-.19.42-.35.11-.15.17-.33.2-.54.02-.2,0-.4-.08-.57-.07-.17-.19-.32-.34-.43-.15-.11-.33-.18-.53-.2-.2-.02-.39,0-.56.08-.17.08-.31.19-.42.35-.11.15-.17.33-.2.54-.02.2,0,.39.08.57.07.18.18.32.34.43s.33.18.53.2c.2.02.39,0,.56-.08"/>
      <polygon class="cls-6" points="36.67 5.51 38.62 6.03 38.47 6.58 37.16 6.23 36.95 7.04 38.19 7.37 38.04 7.92 36.8 7.59 36.45 8.9 35.81 8.74 36.67 5.51"/>
      <polygon class="cls-6" points="39.66 6.38 41.53 7.14 41.32 7.68 40.05 7.16 39.75 7.92 40.97 8.42 40.76 8.93 39.54 8.44 39.23 9.19 40.53 9.72 40.31 10.25 38.41 9.48 39.66 6.38"/>
      <path class="cls-6" d="m41.33,10.69c-.14-.17-.25-.36-.32-.58l.56-.26c.04.15.11.3.22.44.1.15.23.26.39.35.15.09.29.12.4.11.11-.01.2-.07.26-.18.04-.07.05-.14.03-.2-.01-.07-.05-.14-.12-.23-.06-.09-.16-.21-.3-.37-.14-.15-.25-.3-.32-.43s-.12-.27-.13-.42c0-.15.03-.3.12-.46.1-.18.23-.3.39-.38.16-.08.34-.11.53-.09s.4.09.6.2c.19.1.35.24.48.39.13.16.22.31.27.48l-.55.25c-.04-.13-.1-.25-.18-.36-.08-.11-.19-.2-.31-.27-.14-.08-.26-.11-.37-.11s-.19.06-.25.16c-.03.06-.05.13-.03.19.01.06.05.14.12.23.06.09.17.21.3.36.15.17.26.31.34.44.08.13.12.27.13.41,0,.15-.04.31-.13.48-.1.18-.24.31-.4.39-.17.08-.35.11-.55.1s-.41-.09-.62-.21c-.22-.12-.41-.27-.55-.44"/>
      <path class="cls-6" d="m43.78,12.18c-.12-.19-.2-.39-.24-.62l.59-.19c.02.16.07.31.16.47.08.16.2.29.34.39.14.11.27.16.39.16.12,0,.21-.04.28-.14.05-.06.07-.13.06-.2,0-.07-.03-.15-.09-.24-.05-.09-.13-.23-.25-.4-.12-.17-.21-.33-.27-.47-.06-.14-.09-.28-.08-.43,0-.15.07-.3.18-.44.12-.16.26-.27.43-.33.17-.06.35-.07.54-.02.19.04.38.14.57.28.17.13.31.28.42.45.11.17.18.34.21.51l-.58.18c-.02-.13-.06-.26-.13-.38-.07-.12-.16-.22-.27-.31-.13-.1-.25-.15-.36-.16s-.2.03-.26.12c-.04.06-.06.12-.06.19,0,.07.03.15.09.24.05.1.14.23.26.4.12.18.22.34.28.48.06.14.08.28.07.43-.01.15-.08.3-.19.45-.12.17-.27.28-.45.34-.17.06-.36.07-.56.02-.2-.05-.39-.14-.59-.28-.2-.15-.37-.32-.49-.51"/>
      <rect class="cls-6" x="45.47" y="12.52" width="3.34" height=".66" transform="translate(5.8 38.9) rotate(-47.46)"/>
      <path class="cls-6" d="m47.49,15.29c-.06-.3-.05-.59.06-.87.1-.28.28-.53.53-.75.26-.22.53-.35.83-.4.3-.05.59-.02.87.09.28.11.53.29.75.55.22.26.36.53.42.83.06.3.05.59-.05.87s-.27.53-.53.75c-.25.22-.53.35-.83.4-.3.05-.59.03-.88-.09-.28-.11-.54-.29-.76-.55-.22-.25-.35-.53-.42-.83m1.36.76c.18.06.36.08.54.04.19-.04.36-.12.52-.26.16-.13.27-.29.34-.47.07-.18.08-.36.05-.54-.03-.18-.12-.36-.25-.51-.13-.16-.29-.27-.46-.33-.18-.06-.36-.08-.54-.04-.19.04-.36.12-.52.26-.16.13-.27.29-.34.47-.07.18-.09.36-.05.54.03.18.12.36.25.51.13.16.29.27.46.33"/>
      <polygon class="cls-6" points="53.8 18.82 50.92 20.5 50.6 19.96 51.78 17.37 49.77 18.54 49.46 18 52.34 16.32 52.66 16.87 51.46 19.46 53.48 18.28 53.8 18.82"/>
      <path class="cls-6" d="m52.71,22.77l-.46-1.19-.86.02-.24-.62,3.56-.03.26.67-2.67,2.36-.25-.65.65-.56Zm.42-.35l1.06-.9-1.38.04.33.86Z"/>
      <polygon class="cls-6" points="53.44 26.33 52.87 26.47 52.41 24.51 55.66 23.76 55.81 24.4 53.13 25.02 53.44 26.33"/>
      <path class="cls-7" d="m40.75,20.14l-9.47,9.87-3.66-3.72c-.61-.64-1.6-.64-2.21,0-.62.63-.62,1.66,0,2.3l5.87,6.06,11.77-12.24c.75,1.17,1.18,2.57,1.18,4.07,0,1.92-.71,3.68-1.87,4.99l-11.08,11.44-11.07-11.44c-1.16-1.31-1.88-3.07-1.88-4.99,0-4.07,3.18-7.37,7.1-7.37,2.4,0,4.56,1.27,5.85,3.16,1.29-1.89,3.45-3.16,5.85-3.16,1.32,0,2.56.38,3.62,1.03"/>
      <path class="cls-7" d="m35.02,41.64v-.48h.31c.16,0,.33.04.33.23,0,.24-.17.25-.37.25h-.27Zm0,.2h.26l.4.68h.26l-.43-.69c.22-.03.4-.15.4-.43,0-.31-.18-.44-.54-.44h-.58v1.56h.23v-.68Zm.28,1.25c.72,0,1.32-.57,1.32-1.36s-.61-1.35-1.32-1.35-1.33.57-1.33,1.35.61,1.36,1.33,1.36m-1.07-1.36c0-.64.47-1.12,1.07-1.12s1.06.48,1.06,1.12-.47,1.14-1.06,1.14-1.07-.48-1.07-1.14"/>
      <path class="cls-8" d="m40.74,20.15l-9.46,9.87h0l-3.66-3.72c-.61-.64-1.6-.64-2.21,0-.54.55-.6,1.4-.2,2.04.06.09.13.18.2.26l5.87,6.06h0s0,0,0,0l5.87-6.06c.08-.08.15-.17.21-.26l5.69-5.91c-.59-.93-1.38-1.7-2.3-2.27"/>
    </g>
  </g>
</svg>