<?xml version="1.0" encoding="UTF-8"?>
<svg id="Layer_2" data-name="Layer 2" xmlns="http://www.w3.org/2000/svg" xmlns:xlink="http://www.w3.org/1999/xlink" viewBox="0 0 65.77 78.9">
  <defs>
    <style>
      .cls-1 {
        clip-path: url(#clippath);
      }

      .cls-2 {
        fill: none;
      }

      .cls-2, .cls-3 {
        stroke-width: 0px;
      }

      .cls-3 {
        fill: #ce242b;
      }
    </style>
    <clipPath id="clippath">
      <rect class="cls-2" width="65.77" height="78.9"/>
    </clipPath>
  </defs>
  <g id="Layer_1-2" data-name="Layer 1">
    <g class="cls-1">
      <path class="cls-3" d="m21.14,68.31c.13-1.23.53-2.38,1.2-3.45-10.01-.64-14.6-3.81-14.6-4.85v-.09s-.17-6.28-.17-6.28c4.14,2.33,10.78,3.7,18.43,3.7,4.28,0,8.4-.44,11.91-1.29.53-.13.9-.6.9-1.15v-21.76c0-1.25-1.1-1.23-1.45-1.15-3.34.78-7.27,1.22-11.36,1.22-8.57,0-15.93-1.82-19.11-4.67l-.06-2.09s-.02,0-.03-.01c-1.36-.5-2.52-1.04-3.54-1.6l.95,35.16c0,4.07,6.85,7.47,16.93,8.31"/>
      <path class="cls-3" d="m44.53,49.51l3.58-1.65.62-23.02c-1.02.55-2.18,1.09-3.54,1.6,0,0-.02,0-.03.01l-.62,23.06Z"/>
      <path class="cls-3" d="m41.76,18.69c0,.25-.16.47-.4.56-1.97.66-3.03.88-5,1.04-.15,0-.29-.05-.4-.15-.12-.11-.19-.27-.19-.43v-4.91c0-.31.24-.56.54-.59,1.87-.15,2.79-.35,4.67-.98.18-.06.38-.03.53.08.15.11.24.29.24.48v4.91Zm-25.53,1.01c0,.17-.07.32-.19.43-.11.1-.25.15-.4.15-1.97-.16-3.03-.38-5-1.04-.24-.08-.4-.3-.4-.56v-4.91c0-.19.09-.37.24-.48.15-.11.35-.14.53-.08,1.88.63,2.8.83,4.67.98.3.03.54.28.54.59v4.91ZM26,0C11.96,0,.59,4.22.59,9.41v6.47C.26,15.88,0,16.15,0,16.47,0,22.08,11.42,26.47,26,26.47s26-4.39,26-10c0-.32-.26-.59-.59-.59v-6.47C51.41,4.22,40.03,0,26,0"/>
      <path class="cls-3" d="m48.77,59.03l9.67-5.58,2,1.17-9.67,5.58-2-1.16Zm13.7,5.92c2.14-1.36,3.3-2.94,3.3-4.6v-3.51c-.13-1.69-1.16-3.18-3.25-4.55-1.61-1.06-4.62-1.89-7.92-1.89-2.62,0-5.43.53-7.86,1.89-2.38,1.33-3.28,3.19-3.26,4.97l-.02,3.07c.66.27,1.3.57,1.9.91,2.21,1.24,3.75,3,4.51,5.03,1.56.44,3.12.63,4.6.63,3.47,0,6.51-.99,7.99-1.93"/>
      <path class="cls-3" d="m39.61,72.21l-9.67-5.58,2-1.16,9.67,5.58-2,1.16Zm-11.75-7.91c-2.09,1.37-3.12,2.86-3.24,4.55v3.51c-.01,1.66,1.14,3.24,3.28,4.6,1.49.94,4.52,1.93,7.99,1.93,2.51,0,5.24-.51,7.78-1.93,2.18-1.21,3.24-2.89,3.24-4.54l-.02-3.16c.02-1.78-.88-3.63-3.26-4.97-2.43-1.36-5.24-1.89-7.86-1.89-3.3,0-6.31.84-7.92,1.89"/>
    </g>
  </g>
</svg>