<?xml version="1.0" encoding="UTF-8"?>
<svg id="Layer_2" data-name="Layer 2" xmlns="http://www.w3.org/2000/svg" xmlns:xlink="http://www.w3.org/1999/xlink" viewBox="0 0 63 59.36">
  <defs>
    <style>
      .cls-1 {
        clip-path: url(#clippath);
      }

      .cls-2 {
        fill: none;
      }

      .cls-2, .cls-3 {
        stroke-width: 0px;
      }

      .cls-3 {
        fill: #ce242b;
      }
    </style>
    <clipPath id="clippath">
      <rect class="cls-2" width="63" height="59.36"/>
    </clipPath>
  </defs>
  <g id="Layer_1-2" data-name="Layer 1">
    <g class="cls-1">
      <path class="cls-3" d="m.26,38.13l7.56,11.87c.52-.81,1.2-1.49,2.02-2.02l-6.3-9.89,15.24-6.77,7.96,12.51,1.14-3.41-7.16-11.25c-.6-.94-1.31-1.17-2.26-.77L.77,36.26c-.77.34-1,1.1-.51,1.87"/>
      <path class="cls-3" d="m17.24,49.35l1.65-4.21c.4-1.03-.1-2.19-1.13-2.59-1.03-.4-2.19.1-2.59,1.13l-2.44,6.22"/>
      <path class="cls-3" d="m12.73,49.91c-1.85.57-3.15,1.97-3.15,4.6,0,3.15,2.04,4.85,5.53,4.85h18c2.62,0,4.62-1.47,5.9-4.07,1.75-3.57,4.73-9.73,6.6-13.59l3.34.91-7.41,15.05h21.47l-2.85-20.37c-1.44-9.04-6.55-13.01-13.33-13.01-4.94,0-9.49,2.75-12.08,9.13l-6.31,14.86-11.19,1.09"/>
      <path class="cls-3" d="m25.03,11.71c0,6.46,5.24,11.71,11.71,11.71s11.7-5.24,11.7-11.71S43.2,0,36.74,0s-11.71,5.24-11.71,11.71"/>
    </g>
  </g>
</svg>