<?xml version="1.0" encoding="UTF-8"?>
<svg id="Layer_2" data-name="Layer 2" xmlns="http://www.w3.org/2000/svg" xmlns:xlink="http://www.w3.org/1999/xlink" viewBox="0 0 72 53.29">
  <defs>
    <style>
      .cls-1 {
        clip-path: url(#clippath);
      }

      .cls-2 {
        fill: none;
      }

      .cls-2, .cls-3 {
        stroke-width: 0px;
      }

      .cls-3 {
        fill: #ce242b;
      }
    </style>
    <clipPath id="clippath">
      <rect class="cls-2" width="72" height="53.29"/>
    </clipPath>
  </defs>
  <g id="Layer_1-2" data-name="Layer 1">
    <g class="cls-1">
      <path class="cls-3" d="m54.45,46.79l-4.09-1.76,3.48-7.97,4.1,1.77-3.5,7.96Zm-6.02-2.59l-1.57-.68,3.5-7.97,1.56.67-3.48,7.97Zm-10.41-2.08c2.61.68,5.1.85,6.78.85-.24.48-.23.98-.06,1.39.07.18.17.33.3.47l-11.53,1.21c-1.42.43-2.41,1.51-2.41,3.53,0,2.42,1.56,3.72,4.23,3.72h13.78c2.01,0,3.54-1.12,4.52-3.12.18-.36.38-.77.59-1.21.15.04.3.07.45.07.68,0,1.29-.4,1.55-1.01l3.66-8.33,2.03.92-5.6,11.38h15.7l-2.18-15.6c-1.1-6.92-5.02-9.97-10.21-9.97-3.77,0-7.23,2.09-9.22,6.92-.74-.1-1.52.3-1.8.98l-2.87,6.53c-1.38.04-4.08,0-6.93-.71"/>
      <path class="cls-3" d="m51.89,7.82c-4.95,0-8.97,4.01-8.97,8.97s4.01,8.97,8.97,8.97,8.97-4.02,8.97-8.97-4.01-8.97-8.97-8.97"/>
      <path class="cls-3" d="m38.79,40.14c.29-1.78-.26-3.68-2.39-4.24l-12.61-1.65-2.66-7.92c-1.21-4.3-4.97-7.44-9.44-7.44-5.44,0-8.78,3.67-9.67,9.34C.79,36.1,0,53.29,0,53.29h18.33l.53-7.82c-2.85,0-4.29-1.1-5.36-3.41l-2.98-6,2.56-.81c.76,1.66,1.48,3.25,2.04,4.47.98,2.12,2.56,3.35,4.67,3.4l15.1.36c1.8.07,2.53-.57,3.12-1.35"/>
      <path class="cls-3" d="m8.76,8.99c0,4.97,4.03,8.99,8.99,8.99s8.99-4.03,8.99-8.99S22.72,0,17.76,0s-8.99,4.02-8.99,8.99"/>
    </g>
  </g>
</svg>