<?xml version="1.0" encoding="UTF-8"?>
<svg id="Layer_2" data-name="Layer 2" xmlns="http://www.w3.org/2000/svg" xmlns:xlink="http://www.w3.org/1999/xlink" viewBox="0 0 72 66.76">
  <defs>
    <style>
      .cls-1 {
        clip-path: url(#clippath);
      }

      .cls-2 {
        fill: none;
      }

      .cls-2, .cls-3 {
        stroke-width: 0px;
      }

      .cls-3 {
        fill: #ce242b;
      }
    </style>
    <clipPath id="clippath">
      <rect class="cls-2" width="72" height="66.76"/>
    </clipPath>
  </defs>
  <g id="Layer_1-2" data-name="Layer 1">
    <g>
      <polygon class="cls-3" points="20.62 56.53 51.39 56.53 50.46 50.6 21.61 50.6 20.62 56.53"/>
      <g class="cls-1">
        <path class="cls-3" d="m19.87,1.62c.76,0,1.38.62,1.38,1.38s-.62,1.37-1.38,1.37-1.38-.62-1.38-1.37.62-1.38,1.38-1.38m-2.54,4.31h37.33v29.07c1.35.1,2.56.67,3.46,1.58V3.24C58.13,1.45,56.67,0,54.89,0H17.11C15.32,0,13.87,1.45,13.87,3.24v33.34c.9-.91,2.11-1.48,3.46-1.58V5.93Z"/>
        <path class="cls-3" d="m3.98,64.93c.34,1.3.64,1.8,2.02,1.83h6.4c.95,0,1.98-.15,2.39-.95.86-1.71,2.55-5.04,2.93-5.87.39-.84.7-2.98,1.43-7.9.45-3.02,2.29-11.57,2.29-11.57.15-1.34-.84-2.86-2.98-3.3-1.41-.29-3.25.32-3.86,2.22l-3.31,11.48-2.21-5.17,2.14-3.8.06-12.79L.58,44.7c-1,1.54-.46,3.29-.19,4.33l3.59,15.91Z"/>
        <path class="cls-3" d="m57.41,39.39c-.59-1.93-2.44-2.49-3.86-2.22-2.15.41-3.13,1.97-2.98,3.3,0,0,1.84,8.55,2.29,11.57.73,4.92,1.03,7.06,1.43,7.9.38.82,2.08,4.15,2.93,5.87.4.8,1.43.95,2.39.95h6.39c1.38-.03,1.68-.53,2.02-1.83l3.58-15.91c.27-1.04.82-2.79-.19-4.33l-10.69-15.6.06,12.79,2.14,3.8-2.21,5.17-3.31-11.48Z"/>
        <path class="cls-3" d="m45.01,39.23h-4.7v-1.73h4.7v1.73Zm-22.16-2.67v3.71c0,.32.2.82.71.82h8.56l3.02-5.35-3.99-6.66,1.83-.27c.04-.69,0-1.5-.09-2.3-1.93-2.53-2.1-6.12-1.27-8.08,1.45.89,4.05,1.8,8,.81,0,0-1.52-.51-2.17-1.72,0,0,1.34-.34,2.8.59.69,2.05,1.09,5.04-1.16,8.46-.09.79-.12,1.56-.09,2.25l1.92.32-6.73,11.96h14.15c.45,0,.78-.37.78-.86v-3.66c0-3.87-2.33-6.25-5.86-7.49-.19-.5-.27-1.05-.28-1.65-.01-2.13.88-4.83.85-7.94-.05-4.34-3.52-7.86-7.86-7.86s-7.81,3.52-7.86,7.86c-.04,3.11.81,5.82.79,7.95,0,.6-.09,1.15-.28,1.65-3.49,1.24-5.79,3.63-5.79,7.47"/>
      </g>
    </g>
  </g>
</svg>